                     <svg viewBox="0 0 1075 634" xmlns="http://www.w3.org/2000/svg" xml:space="preserve" class="link-icon">
                        <path d="m51.23999,0.01003l204.91,0c28.3,-0.01 51.24,28.37 51.24,63.37l0,506.95c0,34.99 -22.94,63.37 -51.23,63.37l-204.92,0c-28.28,0 -51.23,-28.38 -51.23,-63.37l-0.01,-506.95c0.01,-35 22.96,-63.38 51.25,-63.38l-0.01,0.01zm0,63.37l0,63.37l204.91,0l0,-63.37l-204.91,0zm204.91,126.74l-204.91,0l0,63.38l204.91,-0.02l0,-63.36zm0,316.85l-51.22,0l0,63.37l51.22,0l0,-63.37zm819,-253.43l0,162.72c0,20.14 -16.32,36.47 -36.46,36.47l-286.07,0l0,107.96l104.93,0c20.08,0 36.51,16.43 36.51,36.5c0,20.08 -16.43,36.51 -36.51,36.51l-285.04,0c-20.08,0 -36.51,-16.43 -36.51,-36.51c0,-20.07 16.43,-36.5 36.51,-36.5l104.93,0l0,-107.96l-286.08,0c-20.13,0 -36.45,-16.33 -36.45,-36.47l0,-379.79c0,-20.14 16.32,-36.47 36.45,-36.47l430.25,0c32.86,0 32.86,51.46 0,51.46l-415.26,0l0,349.82l617.35,0l0,-147.74c0,-32.85 51.45,-32.86 51.45,0z"/>
                        <path d="m922.85999,228.03003l0,-75.74l-75.74,0c-14.03,0 -25.51,-11.48 -25.51,-25.52c0,-14.03 11.48,-25.51 25.51,-25.51l75.74,0l0,-75.74c0,-14.04 11.48,-25.52 25.52,-25.52c14.03,0 25.52,11.48 25.52,25.52l0,75.74l75.73,0c14.04,0 25.52,11.48 25.52,25.51c0,14.04 -11.48,25.52 -25.52,25.52l-75.73,0l0,75.74c0,14.03 -11.49,25.51 -25.52,25.51c-14.04,0 -25.52,-11.48 -25.52,-25.51z"/>
                     </svg>