<svg width="2500" height="1792.0000000000002" xmlns="http://www.w3.org/2000/svg" clip-rule="evenodd" class="link-icon">
  <path d="m2490.71,1560.01001l-222.57,-279.88l0,-563.21c0,-92.92 -145.49,-92.92 -145.49,0l0,417.73l-1745.62,0l0,-989.16l1174.19,0c92.91,0 92.91,-145.49 0,-145.49l-1216.56,0c-56.94,0 -103.09,46.17 -103.09,103.11l0,1177.02l-222.6,279.88c-5.8,7.3 -8.97,16.33 -8.97,25.7l0,123.88c0,45.46 36.82,82.26 82.26,82.26l2335.16,0c45.44,0 82.26,-36.8 82.26,-82.26l0,-123.88c0,-9.37 -3.14,-18.4 -8.97,-25.7zm-1005.93,134.01l-469.87,0l0,-124.39l469.87,0l0,124.39z"/>
  <path d="m1837.52,644.76001l0,-214.15l-214.15,0c-39.69,0 -72.15,-32.47 -72.15,-72.15c0,-39.69 32.46,-72.16 72.15,-72.16l214.15,0l0,-214.15c0,-39.68 32.47,-72.15 72.16,-72.15c39.68,0 72.15,32.47 72.15,72.15l0,214.15l214.15,0c39.69,0 72.16,32.47 72.16,72.16c0,39.68 -32.47,72.15 -72.16,72.15l-214.15,0l0,214.15c0,39.69 -32.47,72.16 -72.15,72.16c-39.69,0 -72.16,-32.47 -72.16,-72.16z"/>
</svg>