<svg class="icon" viewBox="0 0 64 64" version="1.1" xmlns="http://www.w3.org/2000/svg">
<path d="M40 12 L40 40 L0 40 L0 12 L40 12Z  M0 4 C-3 4, -4 5, -6 6 L-6 6 C-7 8, -8 10, -8 12 L-8 40 C-8 42, -7 44, -6 46 C-4 47, -3 48, 0 48 L14 48 L13 52 L4 52 C2 52, 2 52, 1 53 C0 54, 0 55, 0 56 C0 57, 0 58, 1 59 C2 60, 2 60, 4 60 L36 60 C37 60, 38 60, 39 59 C39 58, 40 57, 40 56 C40 55, 39 54, 39 53 C38 52, 37 52, 36 52 L26 52 L25 48 L40 48 C42 48, 44 47, 45 46 C47 44, 48 42, 48 40 L48 12 C48 10, 47 8, 45 6 C44 5, 42 4, 40 4 L0 4Z  M58 4 C56 4, 55 5, 53 6 L53 6 C52 7, 52 8, 52 10 L52 54 C52 56, 52 57, 53 58 C55 59, 56 60, 58 60 L66 60 C67 60, 69 59, 70 58 C71 57, 72 56, 72 54 L72 10 C72 8, 71 7, 70 6 C69 5, 67 4, 66 4 L58 4Z  M60 12 L64 12 C65 12, 66 13, 66 14 C66 15, 65 16, 64 16 L60 16 C58 16, 58 15, 58 14 C58 13, 58 12, 60 12 Z M58 22 C58 21, 58 20, 60 20 L64 20 C65 20, 66 21, 66 22 C66 23, 65 24, 64 24 L60 24 C58 24, 58 23, 58 22 Z M62 42 C63 42, 64 42, 65 43 L65 43 C65 44, 66 45, 66 46 C66 47, 65 48, 65 49 C64 50, 63 50, 62 50 C60 50, 60 50, 59 49 C58 48, 58 47, 58 46 C58 45, 58 44, 59 43 C60 42, 60 42, 62 42" />
</svg>