<svg class="button-icon" viewBox="0 0 256 256" version="1.1" xmlns="http://www.w3.org/2000/svg">
    <path d="M16 48 C16 43, 17 40, 20 37 L20 37 C23 34, 27 32, 32 32 L224 32 C228 32, 232 34, 235 37 C238 40, 240 43, 240 48 C240 53, 238 57, 235 60 C232 63, 228 64, 224 64 L32 64 C27 64, 23 63, 20 60 C17 57, 16 53, 16 48 Z M16 128 C16 123, 17 120, 20 117 L20 117 C23 114, 27 112, 32 112 L224 112 C228 112, 232 114, 235 117 C238 120, 240 123, 240 128 C240 133, 238 137, 235 140 C232 143, 228 144, 224 144 L32 144 C27 144, 23 143, 20 140 C17 137, 16 133, 16 128 Z M240 208 C240 213, 238 217, 235 220 L235 220 C232 223, 228 224, 224 224 L32 224 C27 224, 23 223, 20 220 C17 217, 16 213, 16 208 C16 203, 17 200, 20 197 C23 194, 27 192, 32 192 L224 192 C228 192, 232 194, 235 197 C238 200, 240 203, 240 208" />
</svg>